<svg width="223" height="176" viewBox="0 0 223 176" fill="none" xmlns="http://www.w3.org/2000/svg">
<path d="M1.47637 2.44044C-0.11822 6.50641 1.27705 7.08727 15.8277 8.82982C23.2027 9.7979 29.3818 10.766 29.5811 11.1532C29.9798 11.3468 35.1622 39.8085 41.3412 74.2724C47.5203 108.736 53.1014 137.779 53.8987 138.747C54.4966 139.909 59.2804 140.683 64.4629 140.489C78.0169 139.909 78.2162 140.102 71.0406 144.362C59.8784 150.945 58.2838 162.949 67.2534 171.081C81.4054 183.86 102.334 168.951 95.3581 151.138C94.5608 149.589 91.571 146.879 88.3818 145.136C85.1926 143.587 82.6014 141.651 82.6014 140.877C82.6014 140.102 103.73 139.521 129.443 139.521C155.155 139.521 176.284 140.102 176.284 140.683C176.284 141.264 174.091 142.813 171.5 144.362C155.953 152.3 162.331 175.34 180.071 175.34C186.449 175.34 188.841 174.179 193.027 169.338C195.818 166.047 198.21 161.4 198.21 159.077C198.21 153.655 191.632 145.136 186.25 143.394C179.074 141.264 183.858 138.94 193.426 140.102C202.395 141.07 207.578 138.36 204.987 134.294C204.389 133.519 171.301 132.745 131.237 132.745C69.8446 132.745 58.6825 132.357 58.6825 130.034C58.6825 128.485 58.0845 125.968 57.4865 124.226C56.2906 121.515 63.8649 121.128 132.233 121.128C174.091 121.128 208.176 120.547 208.176 119.579C208.176 118.804 211.365 98.2809 215.152 73.6915C218.939 49.2958 222.128 28.5788 222.128 27.8043C222.128 26.8362 181.068 26.2553 130.838 26.2553H39.348L37.5541 15.0256L35.7602 3.98938L19.2162 1.8596C5.46286 0.11705 2.27367 0.310669 1.47637 2.44044ZM213.159 38.8405C211.166 49.8766 202.196 110.479 202.196 112.415C202.196 113.77 176.682 114.157 129.044 113.964L55.6926 113.577L49.5135 79.1128C46.125 60.1383 42.9358 41.9383 42.3379 38.8405L41.1419 33.0319H127.649H214.155L213.159 38.8405ZM84.9933 151.526C91.1723 156.947 87.7838 169.532 80.0102 169.532C75.0271 169.532 68.6487 163.336 68.6487 158.883C68.6487 154.623 75.0271 148.234 79.4122 148.234C80.4088 148.234 83 149.589 84.9933 151.526ZM185.851 151.332C192.03 155.592 191.034 163.53 183.858 167.402C179.074 170.113 178.277 170.113 174.49 166.821C169.507 162.368 169.108 156.56 173.693 151.719C177.679 147.46 180.071 147.266 185.851 151.332Z" fill="#706E6E"/>
<path d="M106.919 57.0404C102.733 59.5574 104.926 65.9468 110.108 66.5277C115.49 67.3021 118.081 62.2681 114.493 58.2021C111.703 54.9106 110.507 54.717 106.919 57.0404Z" fill="#706E6E"/>
<path d="M140.605 58.0085C137.615 61.4936 139.807 66.9149 144.193 66.9149C149.574 66.9149 152.564 63.0426 150.172 58.783C147.78 54.717 143.794 54.3298 140.605 58.0085Z" fill="#706E6E"/>
<path d="M113.696 76.7894C106.72 82.017 104.328 86.6638 106.72 90.3426C108.115 92.4724 109.51 91.8915 114.095 86.8575C117.284 83.1787 122.068 80.0809 126.054 79.3064C131.635 78.1447 133.429 78.9192 139.409 85.1149C145.987 92.0851 150.372 92.8596 150.372 87.2447C150.372 85.8894 147.183 82.017 143.395 78.7255C134.625 71.1745 122.068 70.4 113.696 76.7894Z" fill="#706E6E"/>
</svg>
